<svg xmlns="http://www.w3.org/2000/svg" aria-hidden="true" style="position:absolute;width:0;height:0;overflow:hidden">
    <defs>
        <symbol id="icon-x" viewBox="0 0 32 32">
            <path fill="none" stroke="var(--color1, #f6f5ef)" stroke-linecap="round" stroke-linejoin="round"
                stroke-width="1.733" d="M24 8 8 24M8 8l16 16" />
        </symbol>
        <symbol id="youtube" viewBox="0 0 32 32">
            <path
                d="M20.532 10.5c-0.748-0.044-2.288-0.088-4.62-0.088h-0.308c-2.244 0-3.74 0.044-4.488 0.132-1.012 0.088-1.716 0.352-2.112 0.704-0.352 0.308-0.616 0.88-0.704 1.628-0.044 0.484-0.088 1.496-0.088 3.036v0.22c0 1.452 0.044 2.464 0.132 2.948 0.132 0.704 0.352 1.232 0.792 1.54 0.44 0.352 1.188 0.572 2.244 0.66 0.748 0.044 2.288 0.088 4.62 0.088h0.308c2.244 0 3.74-0.044 4.488-0.132 1.012-0.088 1.716-0.352 2.112-0.704 0.352-0.308 0.616-0.88 0.704-1.628 0.044-0.484 0.088-1.496 0.088-3.036v-0.22c0-1.452-0.044-2.464-0.132-2.948-0.132-0.704-0.352-1.232-0.792-1.54-0.44-0.352-1.188-0.572-2.244-0.66zM18.816 15.912l-4.84 2.904v-5.808l4.84 2.904z">
            </path>
            <path
                d="M4.8 0.4h22.4c2.43 0 4.4 1.97 4.4 4.4v22.4c0 2.43-1.97 4.4-4.4 4.4h-22.4c-2.43 0-4.4-1.97-4.4-4.4v-22.4c0-2.43 1.97-4.4 4.4-4.4z">
            </path>
        </symbol>
        <symbol id="instagram" viewBox="0 0 32 32">
            <path
                d="M19.991 11.115c-0.177 0-0.351 0.053-0.498 0.151s-0.262 0.238-0.33 0.402c-0.068 0.164-0.086 0.344-0.051 0.518s0.12 0.334 0.245 0.459c0.125 0.125 0.285 0.211 0.459 0.245s0.354 0.017 0.518-0.051c0.164-0.068 0.304-0.183 0.402-0.33s0.151-0.321 0.151-0.498c0-0.238-0.094-0.466-0.262-0.634s-0.396-0.262-0.634-0.262zM23.426 12.922c-0.015-0.62-0.131-1.232-0.343-1.815-0.19-0.498-0.485-0.949-0.866-1.322-0.37-0.383-0.822-0.676-1.322-0.859-0.58-0.219-1.194-0.338-1.814-0.351-0.791-0.045-1.045-0.045-3.076-0.045s-2.285 0-3.076 0.045c-0.62 0.013-1.234 0.132-1.814 0.351-0.499 0.184-0.95 0.478-1.322 0.859-0.383 0.37-0.676 0.822-0.859 1.322-0.219 0.581-0.338 1.194-0.351 1.815-0.045 0.791-0.045 1.045-0.045 3.076s0 2.285 0.045 3.076c0.013 0.62 0.132 1.234 0.351 1.814 0.182 0.5 0.476 0.952 0.859 1.322 0.371 0.381 0.823 0.674 1.322 0.859 0.58 0.219 1.194 0.338 1.814 0.351 0.791 0.045 1.045 0.045 3.076 0.045s2.285 0 3.076-0.045c0.62-0.013 1.234-0.131 1.814-0.351 0.5-0.182 0.952-0.476 1.322-0.859 0.383-0.371 0.678-0.823 0.866-1.322 0.213-0.582 0.329-1.195 0.343-1.814 0-0.791 0.045-1.045 0.045-3.076s0-2.285-0.045-3.076zM22.082 18.985c-0.005 0.474-0.091 0.944-0.254 1.389-0.119 0.325-0.311 0.619-0.56 0.859-0.242 0.247-0.535 0.438-0.859 0.56-0.445 0.163-0.915 0.248-1.389 0.254-0.747 0.037-1.023 0.045-2.987 0.045s-2.24 0-2.987-0.045c-0.492 0.009-0.982-0.067-1.449-0.224-0.309-0.128-0.589-0.319-0.821-0.56-0.248-0.24-0.437-0.534-0.553-0.859-0.182-0.452-0.283-0.932-0.299-1.419 0-0.747-0.045-1.023-0.045-2.987s0-2.24 0.045-2.987c0.003-0.485 0.092-0.965 0.261-1.419 0.132-0.315 0.333-0.596 0.59-0.821 0.227-0.257 0.507-0.461 0.821-0.597 0.455-0.164 0.935-0.25 1.419-0.254 0.747 0 1.023-0.045 2.987-0.045s2.24 0 2.987 0.045c0.474 0.005 0.944 0.091 1.389 0.254 0.339 0.126 0.644 0.331 0.889 0.597 0.245 0.229 0.436 0.51 0.56 0.821 0.166 0.455 0.252 0.935 0.254 1.419 0.037 0.747 0.045 1.023 0.045 2.987s-0.007 2.24-0.045 2.987zM16.004 12.168c-0.757 0.002-1.497 0.227-2.126 0.649s-1.119 1.021-1.408 1.721c-0.289 0.7-0.364 1.47-0.215 2.212s0.514 1.424 1.050 1.959c0.536 0.535 1.219 0.899 1.961 1.046s1.513 0.071 2.212-0.219c0.7-0.29 1.297-0.781 1.718-1.411s0.645-1.37 0.645-2.127c0.001-0.504-0.098-1.003-0.29-1.469s-0.475-0.889-0.832-1.245c-0.357-0.356-0.78-0.638-1.246-0.83s-0.965-0.289-1.469-0.287zM16.004 18.484c-0.492 0-0.973-0.146-1.381-0.419s-0.728-0.662-0.916-1.116c-0.188-0.454-0.237-0.954-0.141-1.437s0.333-0.925 0.68-1.273c0.348-0.348 0.791-0.585 1.273-0.681s0.982-0.047 1.437 0.142c0.454 0.188 0.843 0.507 1.116 0.916s0.419 0.89 0.419 1.381c0 0.326-0.064 0.65-0.189 0.951s-0.308 0.576-0.539 0.807-0.505 0.414-0.807 0.539c-0.302 0.125-0.625 0.189-0.951 0.189z">
            </path>
            <path
                d="M6 0.5h20c3.038 0 5.5 2.462 5.5 5.5v20c0 3.038-2.462 5.5-5.5 5.5h-20c-3.038 0-5.5-2.462-5.5-5.5v-20c0-3.038 2.462-5.5 5.5-5.5z">
            </path>
        </symbol>
        <symbol id="facebook" viewBox="0 0 32 32">
            <path
                d="M18.425 10.801h1.462v-2.473c-0.708-0.074-1.419-0.11-2.131-0.109-2.116 0-3.562 1.291-3.562 3.656v2.038h-2.388v2.769h2.388v7.093h2.862v-7.093h2.38l0.358-2.769h-2.738v-1.765c0-0.817 0.218-1.346 1.369-1.346z">
            </path>
            <path
                d="M6 0.5h20c3.038 0 5.5 2.462 5.5 5.5v20c0 3.038-2.462 5.5-5.5 5.5h-20c-3.038 0-5.5-2.462-5.5-5.5v-20c0-3.038 2.462-5.5 5.5-5.5z">
            </path>
        </symbol>
        <symbol id="menu-left" viewBox="0 0 32 32">
            <path
                d="M2.667 7.993c0-.733.595-1.327 1.327-1.327h10.68a1.326 1.326 0 0 1 0 2.654H3.994a1.326 1.326 0 0 1-1.327-1.327zm0 8.007c0-.733.595-1.327 1.327-1.327h24.013a1.326 1.326 0 0 1 0 2.654H3.994A1.326 1.326 0 0 1 2.667 16zm1.326 6.68a1.326 1.326 0 0 0 0 2.654h16.013a1.326 1.326 0 0 0 0-2.654H3.993z" />
        </symbol>
        <symbol id="icon-arrow-up2" viewBox="0 0 17 32">
            <path fill="#f6f5ef" style="fill: var(--color1, #f6f5ef)"
                d="M0 9.778l8.533-9.778 8.533 9.778h-7.055v22.222h-2.956v-22.222h-7.055z"></path>
        </symbol>
        <symbol id="icon-inst" viewBox="0 0 32 32">
            <path
                d="M23.983 6.229a1.794 1.794 0 0 0-1.758 2.141 1.794 1.794 0 0 0 2.443 1.306 1.79 1.79 0 0 0 1.106-1.656 1.792 1.792 0 0 0-1.792-1.792zm6.869 3.614a11.33 11.33 0 0 0-.687-3.629 7.38 7.38 0 0 0-1.732-2.643 7.01 7.01 0 0 0-2.643-1.717 10.905 10.905 0 0 0-3.629-.702c-1.583-.09-2.091-.09-6.152-.09s-4.57 0-6.152.09a10.905 10.905 0 0 0-3.629.702 7.135 7.135 0 0 0-2.643 1.717 7.01 7.01 0 0 0-1.717 2.643 10.905 10.905 0 0 0-.702 3.629c-.09 1.583-.09 2.091-.09 6.153s0 4.57.09 6.152c.026 1.241.263 2.468.702 3.629.365 1 .952 1.904 1.717 2.643a7.135 7.135 0 0 0 2.643 1.717c1.161.439 2.388.676 3.629.702 1.583.09 2.091.09 6.152.09s4.57 0 6.152-.09a10.905 10.905 0 0 0 3.629-.702c1-.365 1.904-.952 2.643-1.717a7.243 7.243 0 0 0 1.732-2.643 11.33 11.33 0 0 0 .687-3.629c0-1.583.09-2.091.09-6.152s0-4.57-.09-6.153zm-2.688 12.126a8.39 8.39 0 0 1-.508 2.778 4.556 4.556 0 0 1-1.12 1.717 4.763 4.763 0 0 1-1.717 1.12 8.39 8.39 0 0 1-2.778.508c-1.493.075-2.046.09-5.973.09s-4.48 0-5.973-.09a8.566 8.566 0 0 1-2.897-.448 4.885 4.885 0 0 1-1.643-1.12 4.48 4.48 0 0 1-1.105-1.717 8.25 8.25 0 0 1-.597-2.837c0-1.493-.09-2.046-.09-5.973s0-4.48.09-5.973a8.281 8.281 0 0 1 .523-2.837 4.482 4.482 0 0 1 1.18-1.643 4.7 4.7 0 0 1 1.643-1.195 8.58 8.58 0 0 1 2.837-.508c1.493 0 2.046-.09 5.973-.09s4.48 0 5.973.09a8.39 8.39 0 0 1 2.778.508 4.56 4.56 0 0 1 1.777 1.195c.489.459.872 1.02 1.12 1.643a8.37 8.37 0 0 1 .508 2.837c.075 1.493.09 2.046.09 5.973s-.015 4.48-.09 5.973zM16.008 8.335a7.667 7.667 0 0 0-7.067 4.739 7.66 7.66 0 0 0 10.017 9.997 7.657 7.657 0 0 0 4.726-7.077 7.645 7.645 0 0 0-7.675-7.66zm0 12.634a4.979 4.979 0 0 1-4.595-3.07 4.975 4.975 0 0 1 3.624-6.78 4.974 4.974 0 0 1 5.564 6.781 4.965 4.965 0 0 1-2.691 2.691 4.97 4.97 0 0 1-1.903.379z" />
        </symbol>
        <symbol id="icon-fb" viewBox="0 0 18 32">
            <path
                d="M14.45 5.602h2.924V.655a40.727 40.727 0 0 0-4.262-.218c-4.231 0-7.124 2.582-7.124 7.311v4.076H1.212v5.538h4.776v14.187h5.724V17.362h4.76l.716-5.538h-5.476V8.293c0-1.633.436-2.691 2.738-2.691z" />
        </symbol>
        <symbol id="icon-utb" viewBox="0 0 46 32">
            <path
                d="M35.806.285c-2.137-.126-6.537-.251-13.2-.251h-.88C15.315.034 11.04.16 8.903.411 6.012.662 4 1.417 2.869 2.422c-1.006.88-1.76 2.514-2.011 4.651-.126 1.383-.251 4.274-.251 8.674v.629c0 4.149.126 7.04.377 8.423.377 2.011 1.006 3.52 2.263 4.4 1.257 1.006 3.394 1.634 6.411 1.886 2.137.126 6.537.251 13.2.251h.88c6.411 0 10.686-.126 12.823-.377 2.891-.251 4.903-1.006 6.034-2.011 1.006-.88 1.76-2.514 2.011-4.651.126-1.383.251-4.274.251-8.674v-.629c0-4.149-.126-7.04-.377-8.423-.377-2.011-1.006-3.52-2.263-4.4C40.96 1.165 38.823.537 35.806.285zm-4.903 15.463-13.828 8.297V7.451l13.828 8.297z" />
        </symbol>
        <symbol id="icon-arrow-up" viewBox="0 0 17 32">
            <path d="M0 9.778 8.533 0l8.533 9.778h-7.055V32H7.055V9.778H0z" />
        </symbol>
        <symbol id="icon-x" viewBox="0 0 32 32">
            <path stroke-linecap="round" stroke-linejoin="round" stroke-width="1.733" d="M24 8 8 24M8 8l16 16" />
        </symbol>
    </defs>
</svg>