<svg xmlns="http://www.w3.org/2000/svg" aria-hidden="true" style="position:absolute;width:0;height:0;overflow:hidden">
    <defs>
        <symbol id="icon-x" viewBox="0 0 32 32">
            <path fill="none" stroke="var(--color1, #f6f5ef)" stroke-linecap="round" stroke-linejoin="round"
                stroke-width="1.733" d="M24 8 8 24M8 8l16 16" />
        </symbol>
        <symbol id="icon-s-youtube" viewBox="0 0 32 32">
            <path fill="var(--color1, #f6f5ef)"
                d="M24.057 6.222c-1.33-.078-4.068-.156-8.213-.156h-.548c-3.989 0-6.649.078-7.979.235-1.799.156-3.051.626-3.755 1.252-.626.548-1.095 1.564-1.252 2.894-.078.86-.156 2.66-.156 5.397v.391c0 2.581.078 4.38.235 5.241.235 1.252.626 2.19 1.408 2.738.782.626 2.112 1.017 3.989 1.173 1.33.078 4.068.156 8.213.156h.548c3.989 0 6.649-.078 7.979-.235 1.799-.156 3.051-.626 3.755-1.252.626-.548 1.095-1.564 1.252-2.894.078-.86.156-2.66.156-5.397v-.391c0-2.581-.078-4.38-.235-5.241-.235-1.252-.626-2.19-1.408-2.738-.782-.626-2.112-1.017-3.989-1.173zm-3.051 9.622-8.604 5.163V10.682l8.604 5.163z" />
        </symbol>
        <symbol id="icon-s-instagram" viewBox="0 0 32 32">
            <path fill="var(--color1, #f6f5ef)"
                d="M23.983 6.229a1.794 1.794 0 0 0-1.758 2.141 1.794 1.794 0 0 0 2.443 1.306 1.79 1.79 0 0 0 1.106-1.656 1.792 1.792 0 0 0-1.792-1.792zm6.869 3.614a11.33 11.33 0 0 0-.687-3.629 7.38 7.38 0 0 0-1.732-2.643 7.01 7.01 0 0 0-2.643-1.717 10.905 10.905 0 0 0-3.629-.702c-1.583-.09-2.091-.09-6.152-.09s-4.57 0-6.152.09a10.905 10.905 0 0 0-3.629.702 7.135 7.135 0 0 0-2.643 1.717 7.01 7.01 0 0 0-1.717 2.643 10.905 10.905 0 0 0-.702 3.629c-.09 1.583-.09 2.091-.09 6.153s0 4.57.09 6.152c.026 1.241.263 2.468.702 3.629.365 1 .952 1.904 1.717 2.643a7.135 7.135 0 0 0 2.643 1.717c1.161.439 2.388.676 3.629.702 1.583.09 2.091.09 6.152.09s4.57 0 6.152-.09a10.905 10.905 0 0 0 3.629-.702c1-.365 1.904-.952 2.643-1.717a7.243 7.243 0 0 0 1.732-2.643 11.33 11.33 0 0 0 .687-3.629c0-1.583.09-2.091.09-6.152s0-4.57-.09-6.153zm-2.688 12.126a8.39 8.39 0 0 1-.508 2.778 4.556 4.556 0 0 1-1.12 1.717 4.763 4.763 0 0 1-1.717 1.12 8.39 8.39 0 0 1-2.778.508c-1.493.075-2.046.09-5.973.09s-4.48 0-5.973-.09a8.566 8.566 0 0 1-2.897-.448 4.885 4.885 0 0 1-1.643-1.12 4.48 4.48 0 0 1-1.105-1.717 8.25 8.25 0 0 1-.597-2.837c0-1.493-.09-2.046-.09-5.973s0-4.48.09-5.973a8.281 8.281 0 0 1 .523-2.837 4.482 4.482 0 0 1 1.18-1.643 4.7 4.7 0 0 1 1.643-1.195 8.58 8.58 0 0 1 2.837-.508c1.493 0 2.046-.09 5.973-.09s4.48 0 5.973.09a8.39 8.39 0 0 1 2.778.508 4.56 4.56 0 0 1 1.777 1.195c.489.459.872 1.02 1.12 1.643a8.37 8.37 0 0 1 .508 2.837c.075 1.493.09 2.046.09 5.973s-.015 4.48-.09 5.973zM16.008 8.335a7.667 7.667 0 0 0-7.067 4.739 7.66 7.66 0 0 0 10.017 9.997 7.657 7.657 0 0 0 4.726-7.077 7.645 7.645 0 0 0-7.675-7.66zm0 12.634a4.979 4.979 0 0 1-4.595-3.07 4.975 4.975 0 0 1 3.624-6.78 4.974 4.974 0 0 1 5.564 6.781 4.965 4.965 0 0 1-2.691 2.691 4.97 4.97 0 0 1-1.903.379z" />
        </symbol>
        <symbol id="icon-s-facebook" viewBox="0 0 18 32">
            <path fill="var(--color1, #f6f5ef)"
                d="M14.851 5.602h2.924V.655a40.727 40.727 0 0 0-4.262-.218c-4.231 0-7.124 2.582-7.124 7.311v4.076H1.613v5.538h4.776v14.187h5.724V17.362h4.76l.716-5.538h-5.476V8.293c0-1.633.436-2.691 2.738-2.691z" />
        </symbol>
        <symbol id="menu-left" viewBox="0 0 32 32">
            <path
                d="M2.667 7.993c0-.733.595-1.327 1.327-1.327h10.68a1.326 1.326 0 0 1 0 2.654H3.994a1.326 1.326 0 0 1-1.327-1.327zm0 8.007c0-.733.595-1.327 1.327-1.327h24.013a1.326 1.326 0 0 1 0 2.654H3.994A1.326 1.326 0 0 1 2.667 16zm1.326 6.68a1.326 1.326 0 0 0 0 2.654h16.013a1.326 1.326 0 0 0 0-2.654H3.993z" />
        </symbol>
        <symbol id="icon-but-arrow" viewBox="0 0 17 32">
            <path fill="var(--color1, #f6f5ef)" d="M0 9.778 8.533 0l8.533 9.778h-7.055V32H7.055V9.778H0z" />
        </symbol>
        <symbol id="icon-logo" viewBox="0 0 28 32">
            <path d="M-8.889-9.142h45.333v44.8H-8.889v-44.8z" />
        </symbol>
    </defs>
</svg>